  0
SECTION
  2
HEADER
  9
$ACADVER
  1
AC1018
  9
$ACADMAINTVER
 70
     0
  9
$DWGCODEPAGE
  3
ANSI_1252
  9
$INSBASE
 10
0.0
 20
0.0
 30
0.0
  9
$EXTMIN
 10
2
 20
-998
 30
0.0
  9
$EXTMAX
 10
999.2
 20
-9
 30
0.0
  9
$LIMMIN
 10
0.0
 20
0.0
  9
$LIMMAX
 10
12.0
 20
9.0
  9
$ORTHOMODE
 70
     0
  9
$REGENMODE
 70
     1
  9
$FILLMODE
 70
     1
  9
$QTEXTMODE
 70
     0
  9
$MIRRTEXT
 70
     1
  9
$LTSCALE
 40
1.0
  9
$ATTMODE
 70
     1
  9
$TEXTSIZE
 40
0.2
  9
$TRACEWID
 40
0.05
  9
$TEXTSTYLE
  7
Standard
  9
$CLAYER
  8
0
  9
$CELTYPE
  6
ByLayer
  9
$CECOLOR
 62
   256
  9
$CELTSCALE
 40
1.0
  9
$DISPSILH
 70
     0
  9
$DIMSCALE
 40
1.0
  9
$DIMASZ
 40
0.18
  9
$DIMEXO
 40
0.0625
  9
$DIMDLI
 40
0.38
  9
$DIMRND
 40
0.0
  9
$DIMDLE
 40
0.0
  9
$DIMEXE
 40
0.18
  9
$DIMTP
 40
0.0
  9
$DIMTM
 40
0.0
  9
$DIMTXT
 40
0.18
  9
$DIMCEN
 40
0.09
  9
$DIMTSZ
 40
0.0
  9
$DIMTOL
 70
     0
  9
$DIMLIM
 70
     0
  9
$DIMTIH
 70
     1
  9
$DIMTOH
 70
     1
  9
$DIMSE1
 70
     0
  9
$DIMSE2
 70
     0
  9
$DIMTAD
 70
     0
  9
$DIMZIN
 70
     0
  9
$DIMBLK
  1

  9
$DIMASO
 70
     1
  9
$DIMSHO
 70
     1
  9
$DIMPOST
  1

  9
$DIMAPOST
  1

  9
$DIMALT
 70
     0
  9
$DIMALTD
 70
     2
  9
$DIMALTF
 40
25.4
  9
$DIMLFAC
 40
1.0
  9
$DIMTOFL
 70
     0
  9
$DIMTVP
 40
0.0
  9
$DIMTIX
 70
     0
  9
$DIMSOXD
 70
     0
  9
$DIMSAH
 70
     0
  9
$DIMBLK1
  1

  9
$DIMBLK2
  1

  9
$DIMSTYLE
  2
Standard
  9
$DIMCLRD
 70
     0
  9
$DIMCLRE
 70
     0
  9
$DIMCLRT
 70
     0
  9
$DIMTFAC
 40
1.0
  9
$DIMGAP
 40
0.09
  9
$DIMJUST
 70
     0
  9
$DIMSD1
 70
     0
  9
$DIMSD2
 70
     0
  9
$DIMTOLJ
 70
     1
  9
$DIMTZIN
 70
     0
  9
$DIMALTZ
 70
     0
  9
$DIMALTTZ
 70
     0
  9
$DIMUPT
 70
     0
  9
$DIMDEC
 70
     4
  9
$DIMTDEC
 70
     4
  9
$DIMALTU
 70
     2
  9
$DIMALTTD
 70
     2
  9
$DIMTXSTY
  7
Standard
  9
$DIMAUNIT
 70
     0
  9
$DIMADEC
 70
     0
  9
$DIMALTRND
 40
0.0
  9
$DIMAZIN
 70
     0
  9
$DIMDSEP
 70
    46
  9
$DIMATFIT
 70
     3
  9
$DIMFRAC
 70
     0
  9
$DIMLDRBLK
  1

  9
$DIMLUNIT
 70
     2
  9
$DIMLWD
 70
    -2
  9
$DIMLWE
 70
    -2
  9
$DIMTMOVE
 70
     0
  9
$LUNITS
 70
     2
  9
$LUPREC
 70
     4
  9
$SKETCHINC
 40
0.1
  9
$FILLETRAD
 40
0.5
  9
$AUNITS
 70
     0
  9
$AUPREC
 70
     0
  9
$MENU
  1
.
  9
$ELEVATION
 40
0.0
  9
$PELEVATION
 40
0.0
  9
$THICKNESS
 40
0.0
  9
$LIMCHECK
 70
     0
  9
$CHAMFERA
 40
0.5
  9
$CHAMFERB
 40
0.5
  9
$CHAMFERC
 40
1.0
  9
$CHAMFERD
 40
0.0
  9
$SKPOLY
 70
     0
  9
$TDCREATE
 40
2455343.56230316
  9
$TDUCREATE
 40
2455343.728969826
  9
$TDUPDATE
 40
2455343.562303171
  9
$TDUUPDATE
 40
2455343.728969838
  9
$TDINDWG
 40
0.0000000116
  9
$TDUSRTIMER
 40
0.0000000116
  9
$USRTIMER
 70
     1
  9
$ANGBASE
 50
0.0
  9
$ANGDIR
 70
     0
  9
$PDMODE
 70
     0
  9
$PDSIZE
 40
0.0
  9
$PLINEWID
 40
0.0
  9
$SPLFRAME
 70
     0
  9
$SPLINETYPE
 70
     6
  9
$SPLINESEGS
 70
     8
  9
$HANDSEED
  5
0002013E
  9
$SURFTAB1
 70
     6
  9
$SURFTAB2
 70
     6
  9
$SURFTYPE
 70
     6
  9
$SURFU
 70
     6
  9
$SURFV
 70
     6
  9
$UCSBASE
  2

  9
$UCSNAME
  2

  9
$UCSORG
 10
0.0
 20
0.0
 30
0.0
  9
$UCSXDIR
 10
1.0
 20
0.0
 30
0.0
  9
$UCSYDIR
 10
0.0
 20
1.0
 30
0.0
  9
$UCSORTHOREF
  2

  9
$UCSORTHOVIEW
 70
     0
  9
$UCSORGTOP
 10
0.0
 20
0.0
 30
0.0
  9
$UCSORGBOTTOM
 10
0.0
 20
0.0
 30
0.0
  9
$UCSORGLEFT
 10
0.0
 20
0.0
 30
0.0
  9
$UCSORGRIGHT
 10
0.0
 20
0.0
 30
0.0
  9
$UCSORGFRONT
 10
0.0
 20
0.0
 30
0.0
  9
$UCSORGBACK
 10
0.0
 20
0.0
 30
0.0
  9
$PUCSBASE
  2

  9
$PUCSNAME
  2

  9
$PUCSORG
 10
0.0
 20
0.0
 30
0.0
  9
$PUCSXDIR
 10
1.0
 20
0.0
 30
0.0
  9
$PUCSYDIR
 10
0.0
 20
1.0
 30
0.0
  9
$PUCSORTHOREF
  2

  9
$PUCSORTHOVIEW
 70
     0
  9
$PUCSORGTOP
 10
0.0
 20
0.0
 30
0.0
  9
$PUCSORGBOTTOM
 10
0.0
 20
0.0
 30
0.0
  9
$PUCSORGLEFT
 10
0.0
 20
0.0
 30
0.0
  9
$PUCSORGRIGHT
 10
0.0
 20
0.0
 30
0.0
  9
$PUCSORGFRONT
 10
0.0
 20
0.0
 30
0.0
  9
$PUCSORGBACK
 10
0.0
 20
0.0
 30
0.0
  9
$USERI1
 70
     0
  9
$USERI2
 70
     0
  9
$USERI3
 70
     0
  9
$USERI4
 70
     0
  9
$USERI5
 70
     0
  9
$USERR1
 40
0.0
  9
$USERR2
 40
0.0
  9
$USERR3
 40
0.0
  9
$USERR4
 40
0.0
  9
$USERR5
 40
0.0
  9
$WORLDVIEW
 70
     1
  9
$SHADEDGE
 70
     3
  9
$SHADEDIF
 70
    70
  9
$TILEMODE
 70
     1
  9
$MAXACTVP
 70
    64
  9
$PINSBASE
 10
0.0
 20
0.0
 30
0.0
  9
$PLIMCHECK
 70
     0
  9
$PEXTMIN
 10
1.000000000000000E+20
 20
1.000000000000000E+20
 30
1.000000000000000E+20
  9
$PEXTMAX
 10
-1.000000000000000E+20
 20
-1.000000000000000E+20
 30
-1.000000000000000E+20
  9
$PLIMMIN
 10
0.0
 20
0.0
  9
$PLIMMAX
 10
12.0
 20
9.0
  9
$UNITMODE
 70
     0
  9
$VISRETAIN
 70
     1
  9
$PLINEGEN
 70
     0
  9
$PSLTSCALE
 70
     1
  9
$TREEDEPTH
 70
  3020
  9
$CMLSTYLE
  2
Standard
  9
$CMLJUST
 70
     0
  9
$CMLSCALE
 40
1.0
  9
$PROXYGRAPHICS
 70
     1
  9
$MEASUREMENT
 70
     0
  9
$CELWEIGHT
370
    -1
  9
$ENDCAPS
280
     0
  9
$JOINSTYLE
280
     0
  9
$LWDISPLAY
290
     0
  9
$INSUNITS
 70
     1
  9
$HYPERLINKBASE
  1

  9
$STYLESHEET
  1

  9
$XEDIT
290
     1
  9
$CEPSNTYPE
380
     0
  9
$PSTYLEMODE
290
     1
  9
$FINGERPRINTGUID
  2
{E7F7769E-AACA-40AB-9EF3-61BBAFBCBA26}
  9
$VERSIONGUID
  2
{FAEB1C32-E019-11D5-929B-00C0DF256EC4}
  9
$EXTNAMES
290
     1
  9
$PSVPSCALE
 40
0.0
  9
$OLESTARTUP
290
     0
  9
$SORTENTS
280
   127
  9
$INDEXCTL
280
     0
  9
$HIDETEXT
280
     1
  9
$XCLIPFRAME
290
     0
  9
$HALOGAP
280
     0
  9
$OBSCOLOR
 70
   257
  9
$OBSLTYPE
280
     0
  9
$INTERSECTIONDISPLAY
280
     0
  9
$INTERSECTIONCOLOR
 70
   257
  9
$DIMASSOC
280
     2
  9
$PROJECTNAME
  1

  0
ENDSEC
  0
SECTION
  2
CLASSES
  0
CLASS
  1
ACDBDICTIONARYWDFLT
  2
AcDbDictionaryWithDefault
  3
ObjectDBX Classes
 90
        0
 91
        4
280
     0
281
     0
  0
CLASS
  1
VISUALSTYLE
  2
AcDbVisualStyle
  3
ObjectDBX Classes
 90
     4095
 91
        4
280
     0
281
     0
  0
ENDSEC
  0
SECTION
  2
TABLES
  0
TABLE
  2
VPORT
  5
8
330
0
100
AcDbSymbolTable
 70
     1
  0
VPORT
  5
29
330
8
100
AcDbSymbolTableRecord
100
AcDbViewportTableRecord
  2
*Active
 70
     0
 10
0.0
 20
0.0
 11
1.0
 21
1.0
 12
80.25
 22
106.4409457059851
 13
0.0
 23
0.0
 14
0.5
 24
0.5
 15
0.5
 25
0.5
 16
0.0
 26
0.0
 36
1.0
 17
0.0
 27
0.0
 37
0.0
 40
113.3818914119703
 41
0.8863849310366128
 42
50.0
 43
0.0
 44
0.0
 50
0.0
 51
0.0
 71
     0
 72
  1000
 73
     1
 74
     3
 75
     0
 76
     0
 77
     0
 78
     0
281
     0
 65
     1
110
0.0
120
0.0
130
0.0
111
1.0
121
0.0
131
0.0
112
0.0
122
1.0
132
0.0
 79
     0
146
0.0
  0
ENDTAB
  0
TABLE
  2
LTYPE
  5
5
330
0
100
AcDbSymbolTable
 70
     1
  0
LTYPE
  5
14
330
5
100
AcDbSymbolTableRecord
100
AcDbLinetypeTableRecord
  2
ByBlock
 70
     0
  3

 72
    65
 73
     0
 40
0.0
  0
LTYPE
  5
15
330
5
100
AcDbSymbolTableRecord
100
AcDbLinetypeTableRecord
  2
ByLayer
 70
     0
  3

 72
    65
 73
     0
 40
0.0
  0
LTYPE
  5
16
330
5
100
AcDbSymbolTableRecord
100
AcDbLinetypeTableRecord
  2
Continuous
 70
     0
  3
Solid line
 72
    65
 73
     0
 40
0.0
  0
ENDTAB
  0
TABLE
  2
LAYER
  5
2
330
0
100
AcDbSymbolTable
 70
     1
  0
LAYER
  5
10
330
2
100
AcDbSymbolTableRecord
100
AcDbLayerTableRecord
  2
0
 70
     0
 62
     7
  6
Continuous
370
    -3
390
F
  0
ENDTAB
  0
TABLE
  2
STYLE
  5
3
330
0
100
AcDbSymbolTable
 70
     1
  0
STYLE
  5
11
330
3
100
AcDbSymbolTableRecord
100
AcDbTextStyleTableRecord
  2
Standard
 70
     0
 40
0.0
 41
1.0
 50
0.0
 71
     0
 42
0.2
  3
txt
  4

  0
ENDTAB
  0
TABLE
  2
VIEW
  5
6
330
0
100
AcDbSymbolTable
 70
     0
  0
ENDTAB
  0
TABLE
  2
UCS
  5
7
330
0
100
AcDbSymbolTable
 70
     0
  0
ENDTAB
  0
TABLE
  2
APPID
  5
9
330
0
100
AcDbSymbolTable
 70
     1
  0
APPID
  5
12
330
9
100
AcDbSymbolTableRecord
100
AcDbRegAppTableRecord
  2
ACAD
 70
     0
  0
ENDTAB
  0
TABLE
  2
DIMSTYLE
  5
A
330
0
100
AcDbSymbolTable
 70
     1
100
AcDbDimStyleTable
  0
DIMSTYLE
105
27
330
A
100
AcDbSymbolTableRecord
100
AcDbDimStyleTableRecord
  2
Standard
 70
     0
340
11
  0
ENDTAB
  0
TABLE
  2
BLOCK_RECORD
  5
1
330
0
100
AcDbSymbolTable
 70
     1
  0
BLOCK_RECORD
  5
1F
330
1
100
AcDbSymbolTableRecord
100
AcDbBlockTableRecord
  2
*Model_Space
340
22
  0
BLOCK_RECORD
  5
1B
330
1
100
AcDbSymbolTableRecord
100
AcDbBlockTableRecord
  2
*Paper_Space
340
1E
  0
BLOCK_RECORD
  5
23
330
1
100
AcDbSymbolTableRecord
100
AcDbBlockTableRecord
  2
*Paper_Space0
340
26
  0
ENDTAB
  0
ENDSEC
  0
SECTION
  2
BLOCKS
  0
BLOCK
  5
20
330
1F
100
AcDbEntity
  8
0
100
AcDbBlockBegin
  2
*Model_Space
 70
     0
 10
0.0
 20
0.0
 30
0.0
  3
*Model_Space
  1

  0
ENDBLK
  5
21
330
1F
100
AcDbEntity
  8
0
100
AcDbBlockEnd
  0
BLOCK
  5
1C
330
1B
100
AcDbEntity
 67
     1
  8
0
100
AcDbBlockBegin
  2
*Paper_Space
 70
     0
 10
0.0
 20
0.0
 30
0.0
  3
*Paper_Space
  1

  0
ENDBLK
  5
1D
330
1B
100
AcDbEntity
 67
     1
  8
0
100
AcDbBlockEnd
  0
BLOCK
  5
24
330
23
100
AcDbEntity
  8
0
100
AcDbBlockBegin
  2
*Paper_Space0
 70
     0
 10
0.0
 20
0.0
 30
0.0
  3
*Paper_Space0
  1

  0
ENDBLK
  5
25
330
23
100
AcDbEntity
  8
0
100
AcDbBlockEnd
  0
ENDSEC
  0
SECTION
  2
ENTITIES
  0
LWPOLYLINE
  5
20000
  8
0
100
AcDbEntity
100
AcDbPolyline
 70
0
 90
2
 10
838
 20
-9
 10
875.6
 20
-12
  0
LWPOLYLINE
  5
20001
  8
0
100
AcDbEntity
100
AcDbPolyline
 70
0
 90
2
 10
891.8
 20
-10
 10
891.8
 20
-10
  0
LWPOLYLINE
  5
20002
  8
0
100
AcDbEntity
100
AcDbPolyline
 70
0
 90
2
 10
948.1
 20
-18
 10
944
 20
-19
  0
LWPOLYLINE
  5
20003
  8
0
100
AcDbEntity
100
AcDbPolyline
 70
0
 90
2
 10
819.9
 20
-14
 10
829.6
 20
-16
  0
LWPOLYLINE
  5
20004
  8
0
100
AcDbEntity
100
AcDbPolyline
 70
0
 90
2
 10
884
 20
-24
 10
913.1
 20
-32
  0
LWPOLYLINE
  5
20005
  8
0
100
AcDbEntity
100
AcDbPolyline
 70
0
 90
2
 10
945
 20
-30
 10
978.5
 20
-35
  0
LWPOLYLINE
  5
20006
  8
0
100
AcDbEntity
100
AcDbPolyline
 70
0
 90
2
 10
942.8
 20
-34
 10
912.2
 20
-37
  0
LWPOLYLINE
  5
20007
  8
0
100
AcDbEntity
100
AcDbPolyline
 70
0
 90
2
 10
924.8
 20
-53
 10
912.7
 20
-55
  0
LWPOLYLINE
  5
20008
  8
0
100
AcDbEntity
100
AcDbPolyline
 70
0
 90
2
 10
836.6
 20
-64
 10
826
 20
-65
  0
LWPOLYLINE
  5
20009
  8
0
100
AcDbEntity
100
AcDbPolyline
 70
0
 90
2
 10
864.7
 20
-83
 10
863
 20
-84
  0
LWPOLYLINE
  5
2000A
  8
0
100
AcDbEntity
100
AcDbPolyline
 70
0
 90
2
 10
475
 20
-119
 10
496
 20
-130
  0
LWPOLYLINE
  5
2000B
  8
0
100
AcDbEntity
100
AcDbPolyline
 70
0
 90
2
 10
99.8
 20
-135
 10
115.2
 20
-138
  0
LWPOLYLINE
  5
2000C
  8
0
100
AcDbEntity
100
AcDbPolyline
 70
0
 90
2
 10
462
 20
-147
 10
485.7
 20
-151
  0
LWPOLYLINE
  5
2000D
  8
0
100
AcDbEntity
100
AcDbPolyline
 70
0
 90
2
 10
624
 20
-198
 10
645.8
 20
-204
  0
LWPOLYLINE
  5
2000E
  8
0
100
AcDbEntity
100
AcDbPolyline
 70
0
 90
2
 10
72.6
 20
-207
 10
57
 20
-210
  0
LWPOLYLINE
  5
2000F
  8
0
100
AcDbEntity
100
AcDbPolyline
 70
0
 90
2
 10
448.3
 20
-212
 10
434.5
 20
-213
  0
LWPOLYLINE
  5
20010
  8
0
100
AcDbEntity
100
AcDbPolyline
 70
0
 90
2
 10
730
 20
-242
 10
695
 20
-250
  0
LWPOLYLINE
  5
20011
  8
0
100
AcDbEntity
100
AcDbPolyline
 70
0
 90
2
 10
278.1
 20
-363
 10
343.5
 20
-377
  0
LWPOLYLINE
  5
20012
  8
0
100
AcDbEntity
100
AcDbPolyline
 70
0
 90
2
 10
643
 20
-368
 10
643
 20
-368
  0
LWPOLYLINE
  5
20013
  8
0
100
AcDbEntity
100
AcDbPolyline
 70
0
 90
2
 10
676.9
 20
-392
 10
690.9
 20
-394
  0
LWPOLYLINE
  5
20014
  8
0
100
AcDbEntity
100
AcDbPolyline
 70
0
 90
2
 10
627
 20
-396
 10
675.3
 20
-404
  0
LWPOLYLINE
  5
20015
  8
0
100
AcDbEntity
100
AcDbPolyline
 70
0
 90
2
 10
867.1
 20
-399
 10
865
 20
-400
  0
LWPOLYLINE
  5
20016
  8
0
100
AcDbEntity
100
AcDbPolyline
 70
0
 90
2
 10
420.2
 20
-401
 10
436.7
 20
-408
  0
LWPOLYLINE
  5
20017
  8
0
100
AcDbEntity
100
AcDbPolyline
 70
0
 90
2
 10
580.6
 20
-402
 10
563.9
 20
-403
  0
LWPOLYLINE
  5
20018
  8
0
100
AcDbEntity
100
AcDbPolyline
 70
0
 90
2
 10
363.3
 20
-406
 10
361
 20
-407
  0
LWPOLYLINE
  5
20019
  8
0
100
AcDbEntity
100
AcDbPolyline
 70
0
 90
2
 10
277
 20
-414
 10
256.2
 20
-419
  0
LWPOLYLINE
  5
2001A
  8
0
100
AcDbEntity
100
AcDbPolyline
 70
0
 90
2
 10
292.9
 20
-422
 10
292.9
 20
-422
  0
LWPOLYLINE
  5
2001B
  8
0
100
AcDbEntity
100
AcDbPolyline
 70
0
 90
2
 10
236.4
 20
-425
 10
215.9
 20
-427
  0
LWPOLYLINE
  5
2001C
  8
0
100
AcDbEntity
100
AcDbPolyline
 70
0
 90
2
 10
332
 20
-425
 10
356.1
 20
-435
  0
LWPOLYLINE
  5
2001D
  8
0
100
AcDbEntity
100
AcDbPolyline
 70
0
 90
2
 10
472.2
 20
-428
 10
487.2
 20
-434
  0
LWPOLYLINE
  5
2001E
  8
0
100
AcDbEntity
100
AcDbPolyline
 70
0
 90
2
 10
166.2
 20
-431
 10
136
 20
-433
  0
LWPOLYLINE
  5
2001F
  8
0
100
AcDbEntity
100
AcDbPolyline
 70
0
 90
2
 10
434.9
 20
-432
 10
468
 20
-434
  0
LWPOLYLINE
  5
20020
  8
0
100
AcDbEntity
100
AcDbPolyline
 70
0
 90
2
 10
378.2
 20
-437
 10
358
 20
-440
  0
LWPOLYLINE
  5
20021
  8
0
100
AcDbEntity
100
AcDbPolyline
 70
0
 90
2
 10
268.8
 20
-443
 10
319.1
 20
-453
  0
LWPOLYLINE
  5
20022
  8
0
100
AcDbEntity
100
AcDbPolyline
 70
0
 90
2
 10
186.9
 20
-443
 10
150.7
 20
-451
  0
LWPOLYLINE
  5
20023
  8
0
100
AcDbEntity
100
AcDbPolyline
 70
0
 90
2
 10
602.6
 20
-443
 10
627.5
 20
-450
  0
LWPOLYLINE
  5
20024
  8
0
100
AcDbEntity
100
AcDbPolyline
 70
0
 90
2
 10
328
 20
-446
 10
345.8
 20
-449
  0
LWPOLYLINE
  5
20025
  8
0
100
AcDbEntity
100
AcDbPolyline
 70
0
 90
2
 10
705.9
 20
-452
 10
676
 20
-454
  0
LWPOLYLINE
  5
20026
  8
0
100
AcDbEntity
100
AcDbPolyline
 70
0
 90
2
 10
134
 20
-453
 10
155.2
 20
-464
  0
LWPOLYLINE
  5
20027
  8
0
100
AcDbEntity
100
AcDbPolyline
 70
0
 90
2
 10
290
 20
-456
 10
290
 20
-456
  0
LWPOLYLINE
  5
20028
  8
0
100
AcDbEntity
100
AcDbPolyline
 70
0
 90
2
 10
272
 20
-461
 10
288.3
 20
-464
  0
LWPOLYLINE
  5
20029
  8
0
100
AcDbEntity
100
AcDbPolyline
 70
0
 90
2
 10
778.7
 20
-461
 10
735.9
 20
-467
  0
LWPOLYLINE
  5
2002A
  8
0
100
AcDbEntity
100
AcDbPolyline
 70
0
 90
2
 10
248.6
 20
-465
 10
243.9
 20
-466
  0
LWPOLYLINE
  5
2002B
  8
0
100
AcDbEntity
100
AcDbPolyline
 70
0
 90
2
 10
535
 20
-464
 10
481.3
 20
-472
  0
LWPOLYLINE
  5
2002C
  8
0
100
AcDbEntity
100
AcDbPolyline
 70
0
 90
2
 10
193
 20
-472
 10
193
 20
-472
  0
LWPOLYLINE
  5
2002D
  8
0
100
AcDbEntity
100
AcDbPolyline
 70
0
 90
2
 10
595
 20
-474
 10
606.7
 20
-475
  0
LWPOLYLINE
  5
2002E
  8
0
100
AcDbEntity
100
AcDbPolyline
 70
0
 90
2
 10
651.9
 20
-472
 10
666.8
 20
-474
  0
LWPOLYLINE
  5
2002F
  8
0
100
AcDbEntity
100
AcDbPolyline
 70
0
 90
2
 10
815.2
 20
-474
 10
810.8
 20
-475
  0
LWPOLYLINE
  5
20030
  8
0
100
AcDbEntity
100
AcDbPolyline
 70
0
 90
2
 10
198.1
 20
-476
 10
226.7
 20
-481
  0
LWPOLYLINE
  5
20031
  8
0
100
AcDbEntity
100
AcDbPolyline
 70
0
 90
2
 10
12.9
 20
-481
 10
50.1
 20
-483
  0
LWPOLYLINE
  5
20032
  8
0
100
AcDbEntity
100
AcDbPolyline
 70
0
 90
2
 10
581.2
 20
-484
 10
575
 20
-485
  0
LWPOLYLINE
  5
20033
  8
0
100
AcDbEntity
100
AcDbPolyline
 70
0
 90
2
 10
458.2
 20
-483
 10
440.9
 20
-484
  0
LWPOLYLINE
  5
20034
  8
0
100
AcDbEntity
100
AcDbPolyline
 70
0
 90
2
 10
320.2
 20
-483
 10
270
 20
-494
  0
LWPOLYLINE
  5
20035
  8
0
100
AcDbEntity
100
AcDbPolyline
 70
0
 90
2
 10
341.8
 20
-483
 10
377.3
 20
-495
  0
LWPOLYLINE
  5
20036
  8
0
100
AcDbEntity
100
AcDbPolyline
 70
0
 90
2
 10
569.6
 20
-487
 10
484.2
 20
-497
  0
LWPOLYLINE
  5
20037
  8
0
100
AcDbEntity
100
AcDbPolyline
 70
0
 90
2
 10
91
 20
-485
 10
129.3
 20
-489
  0
LWPOLYLINE
  5
20038
  8
0
100
AcDbEntity
100
AcDbPolyline
 70
0
 90
2
 10
267.2
 20
-486
 10
240
 20
-490
  0
LWPOLYLINE
  5
20039
  8
0
100
AcDbEntity
100
AcDbPolyline
 70
0
 90
2
 10
132
 20
-491
 10
160.7
 20
-494
  0
LWPOLYLINE
  5
2003A
  8
0
100
AcDbEntity
100
AcDbPolyline
 70
0
 90
2
 10
982.4
 20
-490
 10
994.2
 20
-493
  0
LWPOLYLINE
  5
2003B
  8
0
100
AcDbEntity
100
AcDbPolyline
 70
0
 90
2
 10
713.2
 20
-492
 10
735.2
 20
-503
  0
LWPOLYLINE
  5
2003C
  8
0
100
AcDbEntity
100
AcDbPolyline
 70
0
 90
2
 10
230.6
 20
-500
 10
209.3
 20
-504
  0
LWPOLYLINE
  5
2003D
  8
0
100
AcDbEntity
100
AcDbPolyline
 70
0
 90
2
 10
9
 20
-498
 10
21.5
 20
-500
  0
LWPOLYLINE
  5
2003E
  8
0
100
AcDbEntity
100
AcDbPolyline
 70
0
 90
2
 10
188.1
 20
-502
 10
168
 20
-505
  0
LWPOLYLINE
  5
2003F
  8
0
100
AcDbEntity
100
AcDbPolyline
 70
0
 90
2
 10
543
 20
-504
 10
580.3
 20
-505
  0
LWPOLYLINE
  5
20040
  8
0
100
AcDbEntity
100
AcDbPolyline
 70
0
 90
2
 10
240
 20
-502
 10
274.5
 20
-510
  0
LWPOLYLINE
  5
20041
  8
0
100
AcDbEntity
100
AcDbPolyline
 70
0
 90
2
 10
403.1
 20
-502
 10
442.7
 20
-511
  0
LWPOLYLINE
  5
20042
  8
0
100
AcDbEntity
100
AcDbPolyline
 70
0
 90
2
 10
447
 20
-509
 10
467.9
 20
-512
  0
LWPOLYLINE
  5
20043
  8
0
100
AcDbEntity
100
AcDbPolyline
 70
0
 90
2
 10
686.2
 20
-507
 10
658.9
 20
-511
  0
LWPOLYLINE
  5
20044
  8
0
100
AcDbEntity
100
AcDbPolyline
 70
0
 90
2
 10
771
 20
-508
 10
771
 20
-508
  0
LWPOLYLINE
  5
20045
  8
0
100
AcDbEntity
100
AcDbPolyline
 70
0
 90
2
 10
48.1
 20
-512
 10
75
 20
-516
  0
LWPOLYLINE
  5
20046
  8
0
100
AcDbEntity
100
AcDbPolyline
 70
0
 90
2
 10
499
 20
-513
 10
529.3
 20
-515
  0
LWPOLYLINE
  5
20047
  8
0
100
AcDbEntity
100
AcDbPolyline
 70
0
 90
2
 10
508.4
 20
-519
 10
475
 20
-524
  0
LWPOLYLINE
  5
20048
  8
0
100
AcDbEntity
100
AcDbPolyline
 70
0
 90
2
 10
250
 20
-521
 10
262.6
 20
-523
  0
LWPOLYLINE
  5
20049
  8
0
100
AcDbEntity
100
AcDbPolyline
 70
0
 90
2
 10
798.8
 20
-525
 10
810.3
 20
-526
  0
LWPOLYLINE
  5
2004A
  8
0
100
AcDbEntity
100
AcDbPolyline
 70
0
 90
2
 10
871.8
 20
-532
 10
958.2
 20
-535
  0
LWPOLYLINE
  5
2004B
  8
0
100
AcDbEntity
100
AcDbPolyline
 70
0
 90
2
 10
40.8
 20
-525
 10
23.2
 20
-529
  0
LWPOLYLINE
  5
2004C
  8
0
100
AcDbEntity
100
AcDbPolyline
 70
0
 90
2
 10
225.7
 20
-528
 10
215.5
 20
-529
  0
LWPOLYLINE
  5
2004D
  8
0
100
AcDbEntity
100
AcDbPolyline
 70
0
 90
2
 10
71.6
 20
-533
 10
70.9
 20
-534
  0
LWPOLYLINE
  5
2004E
  8
0
100
AcDbEntity
100
AcDbPolyline
 70
0
 90
2
 10
636
 20
-528
 10
660.2
 20
-531
  0
LWPOLYLINE
  5
2004F
  8
0
100
AcDbEntity
100
AcDbPolyline
 70
0
 90
2
 10
757.2
 20
-527
 10
780.9
 20
-539
  0
LWPOLYLINE
  5
20050
  8
0
100
AcDbEntity
100
AcDbPolyline
 70
0
 90
2
 10
828.2
 20
-529
 10
814.8
 20
-531
  0
LWPOLYLINE
  5
20051
  8
0
100
AcDbEntity
100
AcDbPolyline
 70
0
 90
2
 10
572.3
 20
-531
 10
530.2
 20
-540
  0
LWPOLYLINE
  5
20052
  8
0
100
AcDbEntity
100
AcDbPolyline
 70
0
 90
2
 10
595.8
 20
-532
 10
606.3
 20
-533
  0
LWPOLYLINE
  5
20053
  8
0
100
AcDbEntity
100
AcDbPolyline
 70
0
 90
2
 10
105.1
 20
-532
 10
156.5
 20
-539
  0
LWPOLYLINE
  5
20054
  8
0
100
AcDbEntity
100
AcDbPolyline
 70
0
 90
2
 10
215.9
 20
-534
 10
215.9
 20
-534
  0
LWPOLYLINE
  5
20055
  8
0
100
AcDbEntity
100
AcDbPolyline
 70
0
 90
2
 10
370
 20
-535
 10
397.1
 20
-544
  0
LWPOLYLINE
  5
20056
  8
0
100
AcDbEntity
100
AcDbPolyline
 70
0
 90
2
 10
585.1
 20
-534
 10
560.2
 20
-539
  0
LWPOLYLINE
  5
20057
  8
0
100
AcDbEntity
100
AcDbPolyline
 70
0
 90
2
 10
238.5
 20
-540
 10
225
 20
-542
  0
LWPOLYLINE
  5
20058
  8
0
100
AcDbEntity
100
AcDbPolyline
 70
0
 90
2
 10
269
 20
-543
 10
285.3
 20
-544
  0
LWPOLYLINE
  5
20059
  8
0
100
AcDbEntity
100
AcDbPolyline
 70
0
 90
2
 10
724.3
 20
-538
 10
710
 20
-540
  0
LWPOLYLINE
  5
2005A
  8
0
100
AcDbEntity
100
AcDbPolyline
 70
0
 90
2
 10
33.3
 20
-544
 10
22.9
 20
-554
  0
LWPOLYLINE
  5
2005B
  8
0
100
AcDbEntity
100
AcDbPolyline
 70
0
 90
2
 10
590.4
 20
-543
 10
623.8
 20
-554
  0
LWPOLYLINE
  5
2005C
  8
0
100
AcDbEntity
100
AcDbPolyline
 70
0
 90
2
 10
170.2
 20
-548
 10
184.9
 20
-550
  0
LWPOLYLINE
  5
2005D
  8
0
100
AcDbEntity
100
AcDbPolyline
 70
0
 90
2
 10
452
 20
-552
 10
452
 20
-552
  0
LWPOLYLINE
  5
2005E
  8
0
100
AcDbEntity
100
AcDbPolyline
 70
0
 90
2
 10
443.1
 20
-554
 10
430.6
 20
-559
  0
LWPOLYLINE
  5
2005F
  8
0
100
AcDbEntity
100
AcDbPolyline
 70
0
 90
2
 10
709
 20
-553
 10
730.2
 20
-556
  0
LWPOLYLINE
  5
20060
  8
0
100
AcDbEntity
100
AcDbPolyline
 70
0
 90
2
 10
187
 20
-558
 10
187
 20
-558
  0
LWPOLYLINE
  5
20061
  8
0
100
AcDbEntity
100
AcDbPolyline
 70
0
 90
2
 10
840.9
 20
-557
 10
879.5
 20
-561
  0
LWPOLYLINE
  5
20062
  8
0
100
AcDbEntity
100
AcDbPolyline
 70
0
 90
2
 10
28
 20
-561
 10
28
 20
-561
  0
LWPOLYLINE
  5
20063
  8
0
100
AcDbEntity
100
AcDbPolyline
 70
0
 90
2
 10
789
 20
-561
 10
830.8
 20
-567
  0
LWPOLYLINE
  5
20064
  8
0
100
AcDbEntity
100
AcDbPolyline
 70
0
 90
2
 10
744
 20
-560
 10
792.6
 20
-566
  0
LWPOLYLINE
  5
20065
  8
0
100
AcDbEntity
100
AcDbPolyline
 70
0
 90
2
 10
326
 20
-568
 10
376.1
 20
-572
  0
LWPOLYLINE
  5
20066
  8
0
100
AcDbEntity
100
AcDbPolyline
 70
0
 90
2
 10
370.8
 20
-564
 10
388.2
 20
-565
  0
LWPOLYLINE
  5
20067
  8
0
100
AcDbEntity
100
AcDbPolyline
 70
0
 90
2
 10
667.2
 20
-562
 10
695.2
 20
-576
  0
LWPOLYLINE
  5
20068
  8
0
100
AcDbEntity
100
AcDbPolyline
 70
0
 90
2
 10
563
 20
-566
 10
579.1
 20
-568
  0
LWPOLYLINE
  5
20069
  8
0
100
AcDbEntity
100
AcDbPolyline
 70
0
 90
2
 10
280.2
 20
-567
 10
228
 20
-579
  0
LWPOLYLINE
  5
2006A
  8
0
100
AcDbEntity
100
AcDbPolyline
 70
0
 90
2
 10
982
 20
-570
 10
992.4
 20
-572
  0
LWPOLYLINE
  5
2006B
  8
0
100
AcDbEntity
100
AcDbPolyline
 70
0
 90
2
 10
958
 20
-569
 10
979.3
 20
-574
  0
LWPOLYLINE
  5
2006C
  8
0
100
AcDbEntity
100
AcDbPolyline
 70
0
 90
2
 10
408.2
 20
-576
 10
423.2
 20
-582
  0
LWPOLYLINE
  5
2006D
  8
0
100
AcDbEntity
100
AcDbPolyline
 70
0
 90
2
 10
58
 20
-580
 10
88.6
 20
-587
  0
LWPOLYLINE
  5
2006E
  8
0
100
AcDbEntity
100
AcDbPolyline
 70
0
 90
2
 10
559.8
 20
-581
 10
547
 20
-583
  0
LWPOLYLINE
  5
2006F
  8
0
100
AcDbEntity
100
AcDbPolyline
 70
0
 90
2
 10
625.5
 20
-580
 10
613.5
 20
-586
  0
LWPOLYLINE
  5
20070
  8
0
100
AcDbEntity
100
AcDbPolyline
 70
0
 90
2
 10
98
 20
-582
 10
122.3
 20
-583
  0
LWPOLYLINE
  5
20071
  8
0
100
AcDbEntity
100
AcDbPolyline
 70
0
 90
2
 10
909.1
 20
-584
 10
909.1
 20
-584
  0
LWPOLYLINE
  5
20072
  8
0
100
AcDbEntity
100
AcDbPolyline
 70
0
 90
2
 10
629
 20
-587
 10
629
 20
-587
  0
LWPOLYLINE
  5
20073
  8
0
100
AcDbEntity
100
AcDbPolyline
 70
0
 90
2
 10
767.5
 20
-588
 10
736
 20
-591
  0
LWPOLYLINE
  5
20074
  8
0
100
AcDbEntity
100
AcDbPolyline
 70
0
 90
2
 10
836
 20
-586
 10
835
 20
-587
  0
LWPOLYLINE
  5
20075
  8
0
100
AcDbEntity
100
AcDbPolyline
 70
0
 90
2
 10
217.8
 20
-586
 10
170.8
 20
-590
  0
LWPOLYLINE
  5
20076
  8
0
100
AcDbEntity
100
AcDbPolyline
 70
0
 90
2
 10
877
 20
-587
 10
900
 20
-593
  0
LWPOLYLINE
  5
20077
  8
0
100
AcDbEntity
100
AcDbPolyline
 70
0
 90
2
 10
74.9
 20
-590
 10
84.8
 20
-593
  0
LWPOLYLINE
  5
20078
  8
0
100
AcDbEntity
100
AcDbPolyline
 70
0
 90
2
 10
709.5
 20
-592
 10
681.9
 20
-594
  0
LWPOLYLINE
  5
20079
  8
0
100
AcDbEntity
100
AcDbPolyline
 70
0
 90
2
 10
237
 20
-594
 10
255.3
 20
-595
  0
LWPOLYLINE
  5
2007A
  8
0
100
AcDbEntity
100
AcDbPolyline
 70
0
 90
2
 10
798
 20
-593
 10
831.1
 20
-603
  0
LWPOLYLINE
  5
2007B
  8
0
100
AcDbEntity
100
AcDbPolyline
 70
0
 90
2
 10
129.5
 20
-599
 10
129.5
 20
-599
  0
LWPOLYLINE
  5
2007C
  8
0
100
AcDbEntity
100
AcDbPolyline
 70
0
 90
2
 10
349.2
 20
-594
 10
359.5
 20
-604
  0
LWPOLYLINE
  5
2007D
  8
0
100
AcDbEntity
100
AcDbPolyline
 70
0
 90
2
 10
493
 20
-598
 10
517.3
 20
-602
  0
LWPOLYLINE
  5
2007E
  8
0
100
AcDbEntity
100
AcDbPolyline
 70
0
 90
2
 10
662.9
 20
-600
 10
689.1
 20
-602
  0
LWPOLYLINE
  5
2007F
  8
0
100
AcDbEntity
100
AcDbPolyline
 70
0
 90
2
 10
92
 20
-600
 10
120.4
 20
-612
  0
LWPOLYLINE
  5
20080
  8
0
100
AcDbEntity
100
AcDbPolyline
 70
0
 90
2
 10
937
 20
-603
 10
957.2
 20
-606
  0
LWPOLYLINE
  5
20081
  8
0
100
AcDbEntity
100
AcDbPolyline
 70
0
 90
2
 10
25.6
 20
-600
 10
12.4
 20
-603
  0
LWPOLYLINE
  5
20082
  8
0
100
AcDbEntity
100
AcDbPolyline
 70
0
 90
2
 10
697.2
 20
-604
 10
711.2
 20
-611
  0
LWPOLYLINE
  5
20083
  8
0
100
AcDbEntity
100
AcDbPolyline
 70
0
 90
2
 10
753
 20
-606
 10
773.8
 20
-612
  0
LWPOLYLINE
  5
20084
  8
0
100
AcDbEntity
100
AcDbPolyline
 70
0
 90
2
 10
872
 20
-606
 10
923.9
 20
-613
  0
LWPOLYLINE
  5
20085
  8
0
100
AcDbEntity
100
AcDbPolyline
 70
0
 90
2
 10
192.1
 20
-612
 10
139.9
 20
-616
  0
LWPOLYLINE
  5
20086
  8
0
100
AcDbEntity
100
AcDbPolyline
 70
0
 90
2
 10
403.9
 20
-618
 10
416
 20
-621
  0
LWPOLYLINE
  5
20087
  8
0
100
AcDbEntity
100
AcDbPolyline
 70
0
 90
2
 10
611.5
 20
-621
 10
594.7
 20
-623
  0
LWPOLYLINE
  5
20088
  8
0
100
AcDbEntity
100
AcDbPolyline
 70
0
 90
2
 10
578.9
 20
-623
 10
544
 20
-635
  0
LWPOLYLINE
  5
20089
  8
0
100
AcDbEntity
100
AcDbPolyline
 70
0
 90
2
 10
307.2
 20
-629
 10
294.9
 20
-632
  0
LWPOLYLINE
  5
2008A
  8
0
100
AcDbEntity
100
AcDbPolyline
 70
0
 90
2
 10
937
 20
-631
 10
937
 20
-631
  0
LWPOLYLINE
  5
2008B
  8
0
100
AcDbEntity
100
AcDbPolyline
 70
0
 90
2
 10
241
 20
-631
 10
259.3
 20
-632
  0
LWPOLYLINE
  5
2008C
  8
0
100
AcDbEntity
100
AcDbPolyline
 70
0
 90
2
 10
31.2
 20
-632
 10
43.2
 20
-638
  0
LWPOLYLINE
  5
2008D
  8
0
100
AcDbEntity
100
AcDbPolyline
 70
0
 90
2
 10
919.9
 20
-635
 10
903.2
 20
-636
  0
LWPOLYLINE
  5
2008E
  8
0
100
AcDbEntity
100
AcDbPolyline
 70
0
 90
2
 10
123.4
 20
-637
 10
106.7
 20
-638
  0
LWPOLYLINE
  5
2008F
  8
0
100
AcDbEntity
100
AcDbPolyline
 70
0
 90
2
 10
772
 20
-641
 10
804.7
 20
-642
  0
LWPOLYLINE
  5
20090
  8
0
100
AcDbEntity
100
AcDbPolyline
 70
0
 90
2
 10
817.1
 20
-634
 10
841.2
 20
-639
  0
LWPOLYLINE
  5
20091
  8
0
100
AcDbEntity
100
AcDbPolyline
 70
0
 90
2
 10
130
 20
-635
 10
163.3
 20
-652
  0
LWPOLYLINE
  5
20092
  8
0
100
AcDbEntity
100
AcDbPolyline
 70
0
 90
2
 10
16
 20
-639
 10
30.9
 20
-643
  0
LWPOLYLINE
  5
20093
  8
0
100
AcDbEntity
100
AcDbPolyline
 70
0
 90
2
 10
266
 20
-640
 10
278.6
 20
-642
  0
LWPOLYLINE
  5
20094
  8
0
100
AcDbEntity
100
AcDbPolyline
 70
0
 90
2
 10
541.4
 20
-642
 10
516.7
 20
-646
  0
LWPOLYLINE
  5
20095
  8
0
100
AcDbEntity
100
AcDbPolyline
 70
0
 90
2
 10
220
 20
-642
 10
236.7
 20
-644
  0
LWPOLYLINE
  5
20096
  8
0
100
AcDbEntity
100
AcDbPolyline
 70
0
 90
2
 10
902.9
 20
-641
 10
920.1
 20
-644
  0
LWPOLYLINE
  5
20097
  8
0
100
AcDbEntity
100
AcDbPolyline
 70
0
 90
2
 10
74
 20
-642
 10
90.2
 20
-647
  0
LWPOLYLINE
  5
20098
  8
0
100
AcDbEntity
100
AcDbPolyline
 70
0
 90
2
 10
215
 20
-647
 10
242.5
 20
-652
  0
LWPOLYLINE
  5
20099
  8
0
100
AcDbEntity
100
AcDbPolyline
 70
0
 90
2
 10
282
 20
-648
 10
282
 20
-648
  0
LWPOLYLINE
  5
2009A
  8
0
100
AcDbEntity
100
AcDbPolyline
 70
0
 90
2
 10
566
 20
-654
 10
587.9
 20
-658
  0
LWPOLYLINE
  5
2009B
  8
0
100
AcDbEntity
100
AcDbPolyline
 70
0
 90
2
 10
946
 20
-650
 10
978.1
 20
-658
  0
LWPOLYLINE
  5
2009C
  8
0
100
AcDbEntity
100
AcDbPolyline
 70
0
 90
2
 10
658.3
 20
-651
 10
676.3
 20
-660
  0
LWPOLYLINE
  5
2009D
  8
0
100
AcDbEntity
100
AcDbPolyline
 70
0
 90
2
 10
988
 20
-658
 10
999.2
 20
-661
  0
LWPOLYLINE
  5
2009E
  8
0
100
AcDbEntity
100
AcDbPolyline
 70
0
 90
2
 10
507.3
 20
-660
 10
486.1
 20
-661
  0
LWPOLYLINE
  5
2009F
  8
0
100
AcDbEntity
100
AcDbPolyline
 70
0
 90
2
 10
716
 20
-665
 10
742.3
 20
-666
  0
LWPOLYLINE
  5
200A0
  8
0
100
AcDbEntity
100
AcDbPolyline
 70
0
 90
2
 10
216.7
 20
-662
 10
216.7
 20
-662
  0
LWPOLYLINE
  5
200A1
  8
0
100
AcDbEntity
100
AcDbPolyline
 70
0
 90
2
 10
62.8
 20
-666
 10
62.8
 20
-666
  0
LWPOLYLINE
  5
200A2
  8
0
100
AcDbEntity
100
AcDbPolyline
 70
0
 90
2
 10
417.9
 20
-668
 10
410
 20
-670
  0
LWPOLYLINE
  5
200A3
  8
0
100
AcDbEntity
100
AcDbPolyline
 70
0
 90
2
 10
871
 20
-666
 10
886.3
 20
-667
  0
LWPOLYLINE
  5
200A4
  8
0
100
AcDbEntity
100
AcDbPolyline
 70
0
 90
2
 10
323
 20
-667
 10
323
 20
-667
  0
LWPOLYLINE
  5
200A5
  8
0
100
AcDbEntity
100
AcDbPolyline
 70
0
 90
2
 10
542
 20
-667
 10
560.3
 20
-674
  0
LWPOLYLINE
  5
200A6
  8
0
100
AcDbEntity
100
AcDbPolyline
 70
0
 90
2
 10
277.6
 20
-667
 10
239.1
 20
-674
  0
LWPOLYLINE
  5
200A7
  8
0
100
AcDbEntity
100
AcDbPolyline
 70
0
 90
2
 10
357.1
 20
-670
 10
337.2
 20
-674
  0
LWPOLYLINE
  5
200A8
  8
0
100
AcDbEntity
100
AcDbPolyline
 70
0
 90
2
 10
958.2
 20
-670
 10
974.1
 20
-673
  0
LWPOLYLINE
  5
200A9
  8
0
100
AcDbEntity
100
AcDbPolyline
 70
0
 90
2
 10
521
 20
-676
 10
530.6
 20
-677
  0
LWPOLYLINE
  5
200AA
  8
0
100
AcDbEntity
100
AcDbPolyline
 70
0
 90
2
 10
367.2
 20
-674
 10
366
 20
-675
  0
LWPOLYLINE
  5
200AB
  8
0
100
AcDbEntity
100
AcDbPolyline
 70
0
 90
2
 10
29.3
 20
-678
 10
2.3
 20
-689
  0
LWPOLYLINE
  5
200AC
  8
0
100
AcDbEntity
100
AcDbPolyline
 70
0
 90
2
 10
572.7
 20
-685
 10
566.8
 20
-686
  0
LWPOLYLINE
  5
200AD
  8
0
100
AcDbEntity
100
AcDbPolyline
 70
0
 90
2
 10
552.1
 20
-680
 10
540.2
 20
-692
  0
LWPOLYLINE
  5
200AE
  8
0
100
AcDbEntity
100
AcDbPolyline
 70
0
 90
2
 10
864
 20
-681
 10
864
 20
-681
  0
LWPOLYLINE
  5
200AF
  8
0
100
AcDbEntity
100
AcDbPolyline
 70
0
 90
2
 10
117.1
 20
-683
 10
103.3
 20
-684
  0
LWPOLYLINE
  5
200B0
  8
0
100
AcDbEntity
100
AcDbPolyline
 70
0
 90
2
 10
728
 20
-684
 10
750.1
 20
-687
  0
LWPOLYLINE
  5
200B1
  8
0
100
AcDbEntity
100
AcDbPolyline
 70
0
 90
2
 10
82.3
 20
-687
 10
79
 20
-688
  0
LWPOLYLINE
  5
200B2
  8
0
100
AcDbEntity
100
AcDbPolyline
 70
0
 90
2
 10
192
 20
-686
 10
208.1
 20
-688
  0
LWPOLYLINE
  5
200B3
  8
0
100
AcDbEntity
100
AcDbPolyline
 70
0
 90
2
 10
453.3
 20
-689
 10
436
 20
-693
  0
LWPOLYLINE
  5
200B4
  8
0
100
AcDbEntity
100
AcDbPolyline
 70
0
 90
2
 10
264
 20
-690
 10
280.3
 20
-691
  0
LWPOLYLINE
  5
200B5
  8
0
100
AcDbEntity
100
AcDbPolyline
 70
0
 90
2
 10
127
 20
-697
 10
149.2
 20
-705
  0
LWPOLYLINE
  5
200B6
  8
0
100
AcDbEntity
100
AcDbPolyline
 70
0
 90
2
 10
224
 20
-697
 10
237.9
 20
-700
  0
LWPOLYLINE
  5
200B7
  8
0
100
AcDbEntity
100
AcDbPolyline
 70
0
 90
2
 10
664.8
 20
-696
 10
709.3
 20
-697
  0
LWPOLYLINE
  5
200B8
  8
0
100
AcDbEntity
100
AcDbPolyline
 70
0
 90
2
 10
392.6
 20
-694
 10
361.5
 20
-725
  0
LWPOLYLINE
  5
200B9
  8
0
100
AcDbEntity
100
AcDbPolyline
 70
0
 90
2
 10
827.2
 20
-699
 10
825
 20
-700
  0
LWPOLYLINE
  5
200BA
  8
0
100
AcDbEntity
100
AcDbPolyline
 70
0
 90
2
 10
645.8
 20
-698
 10
627
 20
-703
  0
LWPOLYLINE
  5
200BB
  8
0
100
AcDbEntity
100
AcDbPolyline
 70
0
 90
2
 10
462.4
 20
-698
 10
444.3
 20
-707
  0
LWPOLYLINE
  5
200BC
  8
0
100
AcDbEntity
100
AcDbPolyline
 70
0
 90
2
 10
568.9
 20
-701
 10
547.8
 20
-702
  0
LWPOLYLINE
  5
200BD
  8
0
100
AcDbEntity
100
AcDbPolyline
 70
0
 90
2
 10
786.7
 20
-700
 10
786.7
 20
-700
  0
LWPOLYLINE
  5
200BE
  8
0
100
AcDbEntity
100
AcDbPolyline
 70
0
 90
2
 10
414.2
 20
-702
 10
403
 20
-704
  0
LWPOLYLINE
  5
200BF
  8
0
100
AcDbEntity
100
AcDbPolyline
 70
0
 90
2
 10
240
 20
-706
 10
271
 20
-714
  0
LWPOLYLINE
  5
200C0
  8
0
100
AcDbEntity
100
AcDbPolyline
 70
0
 90
2
 10
874
 20
-710
 10
904.4
 20
-716
  0
LWPOLYLINE
  5
200C1
  8
0
100
AcDbEntity
100
AcDbPolyline
 70
0
 90
2
 10
767
 20
-707
 10
795.7
 20
-708
  0
LWPOLYLINE
  5
200C2
  8
0
100
AcDbEntity
100
AcDbPolyline
 70
0
 90
2
 10
85.8
 20
-720
 10
98.6
 20
-721
  0
LWPOLYLINE
  5
200C3
  8
0
100
AcDbEntity
100
AcDbPolyline
 70
0
 90
2
 10
184
 20
-712
 10
196.8
 20
-714
  0
LWPOLYLINE
  5
200C4
  8
0
100
AcDbEntity
100
AcDbPolyline
 70
0
 90
2
 10
530.1
 20
-712
 10
509
 20
-716
  0
LWPOLYLINE
  5
200C5
  8
0
100
AcDbEntity
100
AcDbPolyline
 70
0
 90
2
 10
138
 20
-715
 10
176.1
 20
-724
  0
LWPOLYLINE
  5
200C6
  8
0
100
AcDbEntity
100
AcDbPolyline
 70
0
 90
2
 10
582.9
 20
-716
 10
594.3
 20
-719
  0
LWPOLYLINE
  5
200C7
  8
0
100
AcDbEntity
100
AcDbPolyline
 70
0
 90
2
 10
617.6
 20
-718
 10
602
 20
-721
  0
LWPOLYLINE
  5
200C8
  8
0
100
AcDbEntity
100
AcDbPolyline
 70
0
 90
2
 10
959.2
 20
-715
 10
976.3
 20
-718
  0
LWPOLYLINE
  5
200C9
  8
0
100
AcDbEntity
100
AcDbPolyline
 70
0
 90
2
 10
548
 20
-717
 10
555.4
 20
-718
  0
LWPOLYLINE
  5
200CA
  8
0
100
AcDbEntity
100
AcDbPolyline
 70
0
 90
2
 10
202.3
 20
-717
 10
223.3
 20
-738
  0
LWPOLYLINE
  5
200CB
  8
0
100
AcDbEntity
100
AcDbPolyline
 70
0
 90
2
 10
699.1
 20
-720
 10
729.3
 20
-724
  0
LWPOLYLINE
  5
200CC
  8
0
100
AcDbEntity
100
AcDbPolyline
 70
0
 90
2
 10
385.2
 20
-735
 10
385.2
 20
-735
  0
LWPOLYLINE
  5
200CD
  8
0
100
AcDbEntity
100
AcDbPolyline
 70
0
 90
2
 10
706.5
 20
-732
 10
692.2
 20
-736
  0
LWPOLYLINE
  5
200CE
  8
0
100
AcDbEntity
100
AcDbPolyline
 70
0
 90
2
 10
963.7
 20
-735
 10
945.7
 20
-744
  0
LWPOLYLINE
  5
200CF
  8
0
100
AcDbEntity
100
AcDbPolyline
 70
0
 90
2
 10
865
 20
-734
 10
884.7
 20
-738
  0
LWPOLYLINE
  5
200D0
  8
0
100
AcDbEntity
100
AcDbPolyline
 70
0
 90
2
 10
237
 20
-739
 10
237
 20
-739
  0
LWPOLYLINE
  5
200D1
  8
0
100
AcDbEntity
100
AcDbPolyline
 70
0
 90
2
 10
424.5
 20
-737
 10
412.5
 20
-743
  0
LWPOLYLINE
  5
200D2
  8
0
100
AcDbEntity
100
AcDbPolyline
 70
0
 90
2
 10
121.4
 20
-739
 10
119
 20
-740
  0
LWPOLYLINE
  5
200D3
  8
0
100
AcDbEntity
100
AcDbPolyline
 70
0
 90
2
 10
754
 20
-738
 10
778.3
 20
-741
  0
LWPOLYLINE
  5
200D4
  8
0
100
AcDbEntity
100
AcDbPolyline
 70
0
 90
2
 10
147
 20
-748
 10
233.9
 20
-754
  0
LWPOLYLINE
  5
200D5
  8
0
100
AcDbEntity
100
AcDbPolyline
 70
0
 90
2
 10
189.4
 20
-742
 10
177
 20
-744
  0
LWPOLYLINE
  5
200D6
  8
0
100
AcDbEntity
100
AcDbPolyline
 70
0
 90
2
 10
85
 20
-744
 10
119.8
 20
-747
  0
LWPOLYLINE
  5
200D7
  8
0
100
AcDbEntity
100
AcDbPolyline
 70
0
 90
2
 10
497
 20
-746
 10
511.6
 20
-747
  0
LWPOLYLINE
  5
200D8
  8
0
100
AcDbEntity
100
AcDbPolyline
 70
0
 90
2
 10
830
 20
-744
 10
848.2
 20
-754
  0
LWPOLYLINE
  5
200D9
  8
0
100
AcDbEntity
100
AcDbPolyline
 70
0
 90
2
 10
370.5
 20
-749
 10
349.3
 20
-750
  0
LWPOLYLINE
  5
200DA
  8
0
100
AcDbEntity
100
AcDbPolyline
 70
0
 90
2
 10
72.7
 20
-747
 10
97.3
 20
-770
  0
LWPOLYLINE
  5
200DB
  8
0
100
AcDbEntity
100
AcDbPolyline
 70
0
 90
2
 10
637
 20
-749
 10
764.6
 20
-774
  0
LWPOLYLINE
  5
200DC
  8
0
100
AcDbEntity
100
AcDbPolyline
 70
0
 90
2
 10
342.2
 20
-756
 10
264
 20
-760
  0
LWPOLYLINE
  5
200DD
  8
0
100
AcDbEntity
100
AcDbPolyline
 70
0
 90
2
 10
615
 20
-755
 10
631.5
 20
-760
  0
LWPOLYLINE
  5
200DE
  8
0
100
AcDbEntity
100
AcDbPolyline
 70
0
 90
2
 10
14
 20
-758
 10
34.3
 20
-762
  0
LWPOLYLINE
  5
200DF
  8
0
100
AcDbEntity
100
AcDbPolyline
 70
0
 90
2
 10
481
 20
-769
 10
591.4
 20
-780
  0
LWPOLYLINE
  5
200E0
  8
0
100
AcDbEntity
100
AcDbPolyline
 70
0
 90
2
 10
463.9
 20
-762
 10
452.2
 20
-763
  0
LWPOLYLINE
  5
200E1
  8
0
100
AcDbEntity
100
AcDbPolyline
 70
0
 90
2
 10
367.6
 20
-763
 10
355
 20
-767
  0
LWPOLYLINE
  5
200E2
  8
0
100
AcDbEntity
100
AcDbPolyline
 70
0
 90
2
 10
127.1
 20
-766
 10
127.1
 20
-766
  0
LWPOLYLINE
  5
200E3
  8
0
100
AcDbEntity
100
AcDbPolyline
 70
0
 90
2
 10
385
 20
-767
 10
419.8
 20
-770
  0
LWPOLYLINE
  5
200E4
  8
0
100
AcDbEntity
100
AcDbPolyline
 70
0
 90
2
 10
443
 20
-767
 10
459.1
 20
-769
  0
LWPOLYLINE
  5
200E5
  8
0
100
AcDbEntity
100
AcDbPolyline
 70
0
 90
2
 10
112.5
 20
-773
 10
112.5
 20
-773
  0
LWPOLYLINE
  5
200E6
  8
0
100
AcDbEntity
100
AcDbPolyline
 70
0
 90
2
 10
289.9
 20
-777
 10
311.1
 20
-784
  0
LWPOLYLINE
  5
200E7
  8
0
100
AcDbEntity
100
AcDbPolyline
 70
0
 90
2
 10
632.8
 20
-778
 10
604
 20
-782
  0
LWPOLYLINE
  5
200E8
  8
0
100
AcDbEntity
100
AcDbPolyline
 70
0
 90
2
 10
13
 20
-775
 10
13
 20
-775
  0
LWPOLYLINE
  5
200E9
  8
0
100
AcDbEntity
100
AcDbPolyline
 70
0
 90
2
 10
660.7
 20
-791
 10
679.8
 20
-792
  0
LWPOLYLINE
  5
200EA
  8
0
100
AcDbEntity
100
AcDbPolyline
 70
0
 90
2
 10
892
 20
-777
 10
911.2
 20
-787
  0
LWPOLYLINE
  5
200EB
  8
0
100
AcDbEntity
100
AcDbPolyline
 70
0
 90
2
 10
450
 20
-785
 10
450
 20
-785
  0
LWPOLYLINE
  5
200EC
  8
0
100
AcDbEntity
100
AcDbPolyline
 70
0
 90
2
 10
786.2
 20
-786
 10
807.9
 20
-797
  0
LWPOLYLINE
  5
200ED
  8
0
100
AcDbEntity
100
AcDbPolyline
 70
0
 90
2
 10
61
 20
-789
 10
129.3
 20
-807
  0
LWPOLYLINE
  5
200EE
  8
0
100
AcDbEntity
100
AcDbPolyline
 70
0
 90
2
 10
396.9
 20
-789
 10
377
 20
-792
  0
LWPOLYLINE
  5
200EF
  8
0
100
AcDbEntity
100
AcDbPolyline
 70
0
 90
2
 10
919
 20
-791
 10
942.1
 20
-794
  0
LWPOLYLINE
  5
200F0
  8
0
100
AcDbEntity
100
AcDbPolyline
 70
0
 90
2
 10
288.1
 20
-792
 10
325.4
 20
-799
  0
LWPOLYLINE
  5
200F1
  8
0
100
AcDbEntity
100
AcDbPolyline
 70
0
 90
2
 10
996.3
 20
-794
 10
956
 20
-808
  0
LWPOLYLINE
  5
200F2
  8
0
100
AcDbEntity
100
AcDbPolyline
 70
0
 90
2
 10
483
 20
-796
 10
544.1
 20
-802
  0
LWPOLYLINE
  5
200F3
  8
0
100
AcDbEntity
100
AcDbPolyline
 70
0
 90
2
 10
864
 20
-800
 10
922.3
 20
-807
  0
LWPOLYLINE
  5
200F4
  8
0
100
AcDbEntity
100
AcDbPolyline
 70
0
 90
2
 10
849.4
 20
-797
 10
821.8
 20
-799
  0
LWPOLYLINE
  5
200F5
  8
0
100
AcDbEntity
100
AcDbPolyline
 70
0
 90
2
 10
192.9
 20
-802
 10
210.1
 20
-805
  0
LWPOLYLINE
  5
200F6
  8
0
100
AcDbEntity
100
AcDbPolyline
 70
0
 90
2
 10
319
 20
-811
 10
352
 20
-836
  0
LWPOLYLINE
  5
200F7
  8
0
100
AcDbEntity
100
AcDbPolyline
 70
0
 90
2
 10
416.3
 20
-807
 10
399.6
 20
-808
  0
LWPOLYLINE
  5
200F8
  8
0
100
AcDbEntity
100
AcDbPolyline
 70
0
 90
2
 10
308.7
 20
-810
 10
294.9
 20
-811
  0
LWPOLYLINE
  5
200F9
  8
0
100
AcDbEntity
100
AcDbPolyline
 70
0
 90
2
 10
182.7
 20
-813
 10
164.7
 20
-822
  0
LWPOLYLINE
  5
200FA
  8
0
100
AcDbEntity
100
AcDbPolyline
 70
0
 90
2
 10
927
 20
-817
 10
940.4
 20
-819
  0
LWPOLYLINE
  5
200FB
  8
0
100
AcDbEntity
100
AcDbPolyline
 70
0
 90
2
 10
343
 20
-816
 10
386.2
 20
-823
  0
LWPOLYLINE
  5
200FC
  8
0
100
AcDbEntity
100
AcDbPolyline
 70
0
 90
2
 10
387.2
 20
-815
 10
407.2
 20
-825
  0
LWPOLYLINE
  5
200FD
  8
0
100
AcDbEntity
100
AcDbPolyline
 70
0
 90
2
 10
445.8
 20
-817
 10
459.4
 20
-821
  0
LWPOLYLINE
  5
200FE
  8
0
100
AcDbEntity
100
AcDbPolyline
 70
0
 90
2
 10
468.7
 20
-819
 10
468.7
 20
-819
  0
LWPOLYLINE
  5
200FF
  8
0
100
AcDbEntity
100
AcDbPolyline
 70
0
 90
2
 10
79.9
 20
-822
 10
79.9
 20
-822
  0
LWPOLYLINE
  5
20100
  8
0
100
AcDbEntity
100
AcDbPolyline
 70
0
 90
2
 10
6
 20
-832
 10
191.7
 20
-847
  0
LWPOLYLINE
  5
20101
  8
0
100
AcDbEntity
100
AcDbPolyline
 70
0
 90
2
 10
271
 20
-828
 10
294.9
 20
-829
  0
LWPOLYLINE
  5
20102
  8
0
100
AcDbEntity
100
AcDbPolyline
 70
0
 90
2
 10
648
 20
-830
 10
666
 20
-835
  0
LWPOLYLINE
  5
20103
  8
0
100
AcDbEntity
100
AcDbPolyline
 70
0
 90
2
 10
234.2
 20
-844
 10
210
 20
-847
  0
LWPOLYLINE
  5
20104
  8
0
100
AcDbEntity
100
AcDbPolyline
 70
0
 90
2
 10
403
 20
-845
 10
441.6
 20
-858
  0
LWPOLYLINE
  5
20105
  8
0
100
AcDbEntity
100
AcDbPolyline
 70
0
 90
2
 10
856
 20
-846
 10
897.2
 20
-849
  0
LWPOLYLINE
  5
20106
  8
0
100
AcDbEntity
100
AcDbPolyline
 70
0
 90
2
 10
253
 20
-847
 10
301.3
 20
-848
  0
LWPOLYLINE
  5
20107
  8
0
100
AcDbEntity
100
AcDbPolyline
 70
0
 90
2
 10
363
 20
-847
 10
379.3
 20
-848
  0
LWPOLYLINE
  5
20108
  8
0
100
AcDbEntity
100
AcDbPolyline
 70
0
 90
2
 10
709.1
 20
-849
 10
753.2
 20
-855
  0
LWPOLYLINE
  5
20109
  8
0
100
AcDbEntity
100
AcDbPolyline
 70
0
 90
2
 10
343
 20
-858
 10
366.3
 20
-860
  0
LWPOLYLINE
  5
2010A
  8
0
100
AcDbEntity
100
AcDbPolyline
 70
0
 90
2
 10
212.7
 20
-853
 10
188.6
 20
-865
  0
LWPOLYLINE
  5
2010B
  8
0
100
AcDbEntity
100
AcDbPolyline
 70
0
 90
2
 10
264.9
 20
-858
 10
305.6
 20
-865
  0
LWPOLYLINE
  5
2010C
  8
0
100
AcDbEntity
100
AcDbPolyline
 70
0
 90
2
 10
779
 20
-859
 10
826.6
 20
-861
  0
LWPOLYLINE
  5
2010D
  8
0
100
AcDbEntity
100
AcDbPolyline
 70
0
 90
2
 10
320
 20
-862
 10
348.7
 20
-865
  0
LWPOLYLINE
  5
2010E
  8
0
100
AcDbEntity
100
AcDbPolyline
 70
0
 90
2
 10
387
 20
-867
 10
387
 20
-867
  0
LWPOLYLINE
  5
2010F
  8
0
100
AcDbEntity
100
AcDbPolyline
 70
0
 90
2
 10
435
 20
-870
 10
460.3
 20
-872
  0
LWPOLYLINE
  5
20110
  8
0
100
AcDbEntity
100
AcDbPolyline
 70
0
 90
2
 10
84
 20
-872
 10
95.8
 20
-875
  0
LWPOLYLINE
  5
20111
  8
0
100
AcDbEntity
100
AcDbPolyline
 70
0
 90
2
 10
103.1
 20
-877
 10
126.5
 20
-882
  0
LWPOLYLINE
  5
20112
  8
0
100
AcDbEntity
100
AcDbPolyline
 70
0
 90
2
 10
319
 20
-878
 10
253.8
 20
-907
  0
LWPOLYLINE
  5
20113
  8
0
100
AcDbEntity
100
AcDbPolyline
 70
0
 90
2
 10
478
 20
-881
 10
507.5
 20
-887
  0
LWPOLYLINE
  5
20114
  8
0
100
AcDbEntity
100
AcDbPolyline
 70
0
 90
2
 10
44
 20
-883
 10
56.2
 20
-884
  0
LWPOLYLINE
  5
20115
  8
0
100
AcDbEntity
100
AcDbPolyline
 70
0
 90
2
 10
216
 20
-896
 10
248.9
 20
-925
  0
LWPOLYLINE
  5
20116
  8
0
100
AcDbEntity
100
AcDbPolyline
 70
0
 90
2
 10
573
 20
-897
 10
583.8
 20
-900
  0
LWPOLYLINE
  5
20117
  8
0
100
AcDbEntity
100
AcDbPolyline
 70
0
 90
2
 10
495
 20
-898
 10
566.9
 20
-918
  0
LWPOLYLINE
  5
20118
  8
0
100
AcDbEntity
100
AcDbPolyline
 70
0
 90
2
 10
475.6
 20
-899
 10
435
 20
-912
  0
LWPOLYLINE
  5
20119
  8
0
100
AcDbEntity
100
AcDbPolyline
 70
0
 90
2
 10
987.5
 20
-903
 10
959.9
 20
-905
  0
LWPOLYLINE
  5
2011A
  8
0
100
AcDbEntity
100
AcDbPolyline
 70
0
 90
2
 10
89.6
 20
-903
 10
82.9
 20
-904
  0
LWPOLYLINE
  5
2011B
  8
0
100
AcDbEntity
100
AcDbPolyline
 70
0
 90
2
 10
477.9
 20
-903
 10
495.7
 20
-907
  0
LWPOLYLINE
  5
2011C
  8
0
100
AcDbEntity
100
AcDbPolyline
 70
0
 90
2
 10
608.1
 20
-905
 10
644.4
 20
-913
  0
LWPOLYLINE
  5
2011D
  8
0
100
AcDbEntity
100
AcDbPolyline
 70
0
 90
2
 10
30.2
 20
-906
 10
60.2
 20
-921
  0
LWPOLYLINE
  5
2011E
  8
0
100
AcDbEntity
100
AcDbPolyline
 70
0
 90
2
 10
65
 20
-914
 10
78.2
 20
-921
  0
LWPOLYLINE
  5
2011F
  8
0
100
AcDbEntity
100
AcDbPolyline
 70
0
 90
2
 10
473
 20
-918
 10
538.1
 20
-934
  0
LWPOLYLINE
  5
20120
  8
0
100
AcDbEntity
100
AcDbPolyline
 70
0
 90
2
 10
363
 20
-922
 10
380.1
 20
-927
  0
LWPOLYLINE
  5
20121
  8
0
100
AcDbEntity
100
AcDbPolyline
 70
0
 90
2
 10
85
 20
-923
 10
103.1
 20
-924
  0
LWPOLYLINE
  5
20122
  8
0
100
AcDbEntity
100
AcDbPolyline
 70
0
 90
2
 10
269
 20
-924
 10
344.2
 20
-937
  0
LWPOLYLINE
  5
20123
  8
0
100
AcDbEntity
100
AcDbPolyline
 70
0
 90
2
 10
14.5
 20
-924
 10
2
 20
-933
  0
LWPOLYLINE
  5
20124
  8
0
100
AcDbEntity
100
AcDbPolyline
 70
0
 90
2
 10
397
 20
-930
 10
418.3
 20
-938
  0
LWPOLYLINE
  5
20125
  8
0
100
AcDbEntity
100
AcDbPolyline
 70
0
 90
2
 10
168.7
 20
-931
 10
154
 20
-933
  0
LWPOLYLINE
  5
20126
  8
0
100
AcDbEntity
100
AcDbPolyline
 70
0
 90
2
 10
260.8
 20
-938
 10
248.4
 20
-942
  0
LWPOLYLINE
  5
20127
  8
0
100
AcDbEntity
100
AcDbPolyline
 70
0
 90
2
 10
440.4
 20
-938
 10
424
 20
-940
  0
LWPOLYLINE
  5
20128
  8
0
100
AcDbEntity
100
AcDbPolyline
 70
0
 90
2
 10
196
 20
-940
 10
230.9
 20
-944
  0
LWPOLYLINE
  5
20129
  8
0
100
AcDbEntity
100
AcDbPolyline
 70
0
 90
2
 10
32.3
 20
-938
 10
15.8
 20
-949
  0
LWPOLYLINE
  5
2012A
  8
0
100
AcDbEntity
100
AcDbPolyline
 70
0
 90
2
 10
403
 20
-942
 10
421
 20
-947
  0
LWPOLYLINE
  5
2012B
  8
0
100
AcDbEntity
100
AcDbPolyline
 70
0
 90
2
 10
547
 20
-942
 10
571.3
 20
-949
  0
LWPOLYLINE
  5
2012C
  8
0
100
AcDbEntity
100
AcDbPolyline
 70
0
 90
2
 10
394
 20
-945
 10
426.3
 20
-952
  0
LWPOLYLINE
  5
2012D
  8
0
100
AcDbEntity
100
AcDbPolyline
 70
0
 90
2
 10
277.9
 20
-954
 10
296.7
 20
-958
  0
LWPOLYLINE
  5
2012E
  8
0
100
AcDbEntity
100
AcDbPolyline
 70
0
 90
2
 10
468
 20
-947
 10
443.2
 20
-952
  0
LWPOLYLINE
  5
2012F
  8
0
100
AcDbEntity
100
AcDbPolyline
 70
0
 90
2
 10
327.9
 20
-955
 10
327.9
 20
-955
  0
LWPOLYLINE
  5
20130
  8
0
100
AcDbEntity
100
AcDbPolyline
 70
0
 90
2
 10
402
 20
-955
 10
419.2
 20
-960
  0
LWPOLYLINE
  5
20131
  8
0
100
AcDbEntity
100
AcDbPolyline
 70
0
 90
2
 10
57
 20
-958
 10
118.5
 20
-971
  0
LWPOLYLINE
  5
20132
  8
0
100
AcDbEntity
100
AcDbPolyline
 70
0
 90
2
 10
243
 20
-962
 10
255.5
 20
-964
  0
LWPOLYLINE
  5
20133
  8
0
100
AcDbEntity
100
AcDbPolyline
 70
0
 90
2
 10
263
 20
-963
 10
269.7
 20
-965
  0
LWPOLYLINE
  5
20134
  8
0
100
AcDbEntity
100
AcDbPolyline
 70
0
 90
2
 10
65
 20
-976
 10
90.2
 20
-979
  0
LWPOLYLINE
  5
20135
  8
0
100
AcDbEntity
100
AcDbPolyline
 70
0
 90
2
 10
314
 20
-980
 10
326.7
 20
-984
  0
LWPOLYLINE
  5
20136
  8
0
100
AcDbEntity
100
AcDbPolyline
 70
0
 90
2
 10
450
 20
-976
 10
481.9
 20
-981
  0
LWPOLYLINE
  5
20137
  8
0
100
AcDbEntity
100
AcDbPolyline
 70
0
 90
2
 10
34
 20
-975
 10
62
 20
-981
  0
LWPOLYLINE
  5
20138
  8
0
100
AcDbEntity
100
AcDbPolyline
 70
0
 90
2
 10
668.2
 20
-984
 10
658.3
 20
-993
  0
LWPOLYLINE
  5
20139
  8
0
100
AcDbEntity
100
AcDbPolyline
 70
0
 90
2
 10
145
 20
-987
 10
210.5
 20
-992
  0
LWPOLYLINE
  5
2013A
  8
0
100
AcDbEntity
100
AcDbPolyline
 70
0
 90
2
 10
213
 20
-985
 10
225
 20
-986
  0
LWPOLYLINE
  5
2013B
  8
0
100
AcDbEntity
100
AcDbPolyline
 70
0
 90
2
 10
263.6
 20
-986
 10
253
 20
-988
  0
LWPOLYLINE
  5
2013C
  8
0
100
AcDbEntity
100
AcDbPolyline
 70
0
 90
2
 10
294.1
 20
-992
 10
281
 20
-998
  0
LWPOLYLINE
  5
2013D
  8
0
100
AcDbEntity
100
AcDbPolyline
 70
0
 90
2
 10
631
 20
-994
 10
644.9
 20
-998
  0
ENDSEC
  0
SECTION
  2
OBJECTS
  0
DICTIONARY
  5
C
330
0
100
AcDbDictionary
281
     1
  3
ACAD_GROUP
350
D
  3
ACAD_LAYOUT
350
1A
  3
ACAD_MLEADERSTYLE
350
43
  3
ACAD_MLINESTYLE
350
17
  3
ACAD_PLOTSETTINGS
350
19
  3
ACAD_PLOTSTYLENAME
350
E
  3
ACAD_TABLESTYLE
350
42
  3
ACAD_VISUALSTYLE
350
2A
  0
DICTIONARY
  5
D
102
{ACAD_REACTORS
330
C
102
}
330
C
100
AcDbDictionary
281
     1
  0
DICTIONARY
  5
1A
102
{ACAD_REACTORS
330
C
102
}
330
C
100
AcDbDictionary
281
     1
  3
Layout1
350
1E
  3
Layout2
350
26
  3
Model
350
22
  0
DICTIONARY
  5
43
102
{ACAD_REACTORS
330
C
102
}
330
C
100
AcDbDictionary
281
     1
  0
DICTIONARY
  5
17
102
{ACAD_REACTORS
330
C
102
}
330
C
100
AcDbDictionary
281
     1
  3
Standard
350
18
  0
DICTIONARY
  5
19
102
{ACAD_REACTORS
330
C
102
}
330
C
100
AcDbDictionary
281
     1
  0
ACDBDICTIONARYWDFLT
  5
E
102
{ACAD_REACTORS
330
C
102
}
330
C
100
AcDbDictionary
281
     1
  3
Normal
350
F
100
AcDbDictionaryWithDefault
340
F
  0
DICTIONARY
  5
42
102
{ACAD_REACTORS
330
C
102
}
330
C
100
AcDbDictionary
281
     1
  0
DICTIONARY
  5
2A
102
{ACAD_REACTORS
330
C
102
}
330
C
100
AcDbDictionary
281
     1
  3
2dWireframe
350
2F
  3
3D Hidden
350
31
  3
3dWireframe
350
30
  3
Basic
350
32
  3
Brighten
350
36
  3
ColorChange
350
3A
  3
Conceptual
350
34
  3
Dim
350
35
  3
Facepattern
350
39
  3
Flat
350
2B
  3
FlatWithEdges
350
2C
  3
Gouraud
350
2D
  3
GouraudWithEdges
350
2E
  3
Linepattern
350
38
  3
Realistic
350
33
  3
Thicken
350
37
  0
LAYOUT
  5
1E
102
{ACAD_REACTORS
330
1A
102
}
330
1A
100
AcDbPlotSettings
  1

  2
none_device
  4

  6

 40
0.0
 41
0.0
 42
0.0
 43
0.0
 44
0.0
 45
0.0
 46
0.0
 47
0.0
 48
0.0
 49
0.0
140
0.0
141
0.0
142
1.0
143
1.0
 70
   688
 72
     0
 73
     0
 74
     5
  7

 75
    16
 76
     0
 77
     2
 78
   300
147
1.0
148
0.0
149
0.0
100
AcDbLayout
  1
Layout1
 70
     1
 71
     1
 10
0.0
 20
0.0
 11
12.0
 21
9.0
 12
0.0
 22
0.0
 32
0.0
 14
1.000000000000000E+20
 24
1.000000000000000E+20
 34
1.000000000000000E+20
 15
-1.000000000000000E+20
 25
-1.000000000000000E+20
 35
-1.000000000000000E+20
146
0.0
 13
0.0
 23
0.0
 33
0.0
 16
1.0
 26
0.0
 36
0.0
 17
0.0
 27
1.0
 37
0.0
 76
     0
330
1B
  0
LAYOUT
  5
26
102
{ACAD_REACTORS
330
1A
102
}
330
1A
100
AcDbPlotSettings
  1

  2
none_device
  4

  6

 40
0.0
 41
0.0
 42
0.0
 43
0.0
 44
0.0
 45
0.0
 46
0.0
 47
0.0
 48
0.0
 49
0.0
140
0.0
141
0.0
142
1.0
143
1.0
 70
   688
 72
     0
 73
     0
 74
     5
  7

 75
    16
 76
     0
 77
     2
 78
   300
147
1.0
148
0.0
149
0.0
100
AcDbLayout
  1
Layout2
 70
     1
 71
     2
 10
0.0
 20
0.0
 11
0.0
 21
0.0
 12
0.0
 22
0.0
 32
0.0
 14
0.0
 24
0.0
 34
0.0
 15
0.0
 25
0.0
 35
0.0
146
0.0
 13
0.0
 23
0.0
 33
0.0
 16
1.0
 26
0.0
 36
0.0
 17
0.0
 27
1.0
 37
0.0
 76
     0
330
23
  0
LAYOUT
  5
22
102
{ACAD_REACTORS
330
1A
102
}
330
1A
100
AcDbPlotSettings
  1

  2
none_device
  4

  6

 40
0.0
 41
0.0
 42
0.0
 43
0.0
 44
0.0
 45
0.0
 46
0.0
 47
0.0
 48
0.0
 49
0.0
140
0.0
141
0.0
142
1.0
143
1.0
 70
  1712
 72
     0
 73
     0
 74
     0
  7

 75
     0
 76
     0
 77
     2
 78
   300
147
1.0
148
0.0
149
0.0
100
AcDbLayout
  1
Model
 70
     1
 71
     0
 10
0.0
 20
0.0
 11
12.0
 21
9.0
 12
0.0
 22
0.0
 32
0.0
 14
30.0
 24
49.75
 34
0.0
 15
130.5
 25
163.1318914119703
 35
0.0
146
0.0
 13
0.0
 23
0.0
 33
0.0
 16
1.0
 26
0.0
 36
0.0
 17
0.0
 27
1.0
 37
0.0
 76
     0
330
1F
331
29
  0
MLINESTYLE
  5
18
102
{ACAD_REACTORS
330
17
102
}
330
17
100
AcDbMlineStyle
  2
Standard
 70
     0
  3

 62
   256
 51
90.0
 52
90.0
 71
     2
 49
0.5
 62
   256
  6
BYLAYER
 49
-0.5
 62
   256
  6
BYLAYER
  0
ACDBPLACEHOLDER
  5
F
102
{ACAD_REACTORS
330
E
102
}
330
E
  0
VISUALSTYLE
  5
2F
102
{ACAD_REACTORS
330
2A
102
}
330
2A
100
AcDbVisualStyle
  2
2dWireframe
 70
     4
 71
     0
 72
     2
 73
     0
 90
        0
 40
-0.6
 41
-30.0
 62
     5
 63
     7
421
 16777215
 74
     1
 91
        4
 64
     7
 65
   257
 75
     1
175
     1
 42
1.0
 92
        0
 66
   257
 43
1.0
 76
     1
 77
     6
 78
     2
 67
     7
 79
     5
170
     0
171
     0
290
     0
174
     0
 93
        1
 44
0.0
173
     0
291
     0
 45
0.0
1001
ACAD
1000
AcDbSavedByObjectVersion
1070
     0
  0
VISUALSTYLE
  5
31
102
{ACAD_REACTORS
330
2A
102
}
330
2A
100
AcDbVisualStyle
  2
3D Hidden
 70
     6
 71
     1
 72
     2
 73
     2
 90
        0
 40
-0.6
 41
-30.0
 62
     5
 63
     7
421
 16777215
 74
     2
 91
        2
 64
     7
 65
   257
 75
     2
175
     1
 42
40.0
 92
        0
 66
   257
 43
1.0
 76
     1
 77
     6
 78
     2
 67
     7
 79
     3
170
     0
171
     0
290
     0
174
     0
 93
        1
 44
0.0
173
     0
291
     0
 45
0.0
1001
ACAD
1000
AcDbSavedByObjectVersion
1070
     0
  0
VISUALSTYLE
  5
30
102
{ACAD_REACTORS
330
2A
102
}
330
2A
100
AcDbVisualStyle
  2
3dWireframe
 70
     5
 71
     0
 72
     2
 73
     0
 90
        0
 40
-0.6
 41
-30.0
 62
     5
 63
     7
421
 16777215
 74
     1
 91
        4
 64
     7
 65
   257
 75
     1
175
     1
 42
1.0
 92
        0
 66
   257
 43
1.0
 76
     1
 77
     6
 78
     2
 67
     7
 79
     5
170
     0
171
     0
290
     0
174
     0
 93
        1
 44
0.0
173
     0
291
     0
 45
0.0
1001
ACAD
1000
AcDbSavedByObjectVersion
1070
     0
  0
VISUALSTYLE
  5
32
102
{ACAD_REACTORS
330
2A
102
}
330
2A
100
AcDbVisualStyle
  2
Basic
 70
     7
 71
     1
 72
     0
 73
     1
 90
        0
 40
-0.6
 41
-30.0
 62
     5
 63
     7
421
 16777215
 74
     0
 91
        4
 64
     7
 65
   257
 75
     1
175
     1
 42
1.0
 92
        8
 66
     7
 43
1.0
 76
     1
 77
     6
 78
     2
 67
     7
 79
     5
170
     0
171
     0
290
     0
174
     0
 93
        1
 44
0.0
173
     0
291
     1
 45
0.0
1001
ACAD
1000
AcDbSavedByObjectVersion
1070
     0
  0
VISUALSTYLE
  5
36
102
{ACAD_REACTORS
330
2A
102
}
330
2A
100
AcDbVisualStyle
  2
Brighten
 70
    12
 71
     2
 72
     2
 73
     0
 90
        0
 40
-0.6
 41
-30.0
 62
     5
 63
     7
421
 16777215
 74
     1
 91
        4
 64
     7
 65
   257
 75
     1
175
     1
 42
1.0
 92
        8
 66
     7
 43
1.0
 76
     1
 77
     6
 78
     2
 67
     7
 79
     5
170
     0
171
     0
290
     0
174
     0
 93
        1
 44
50.0
173
     0
291
     1
 45
0.0
1001
ACAD
1000
AcDbSavedByObjectVersion
1070
     0
  0
VISUALSTYLE
  5
3A
102
{ACAD_REACTORS
330
2A
102
}
330
2A
100
AcDbVisualStyle
  2
ColorChange
 70
    16
 71
     2
 72
     2
 73
     3
 90
        0
 40
-0.6
 41
-30.0
 62
     5
 63
     8
421
  8421504
 74
     1
 91
        4
 64
     7
 65
   257
 75
     1
175
     1
 42
1.0
 92
        8
 66
     8
424
  8421504
 43
1.0
 76
     1
 77
     6
 78
     2
 67
     7
 79
     5
170
     0
171
     0
290
     0
174
     0
 93
        1
 44
0.0
173
     0
291
     1
 45
0.0
1001
ACAD
1000
AcDbSavedByObjectVersion
1070
     0
  0
VISUALSTYLE
  5
34
102
{ACAD_REACTORS
330
2A
102
}
330
2A
100
AcDbVisualStyle
  2
Conceptual
 70
     9
 71
     3
 72
     2
 73
     0
 90
        0
 40
-0.6
 41
-30.0
 62
     5
 63
     7
421
 16777215
 74
     2
 91
        2
 64
     7
 65
   257
 75
     1
175
     1
 42
40.0
 92
        8
 66
     7
 43
1.0
 76
     1
 77
     6
 78
     2
 67
     7
 79
     3
170
     0
171
     0
290
     0
174
     0
 93
        1
 44
0.0
173
     0
291
     0
 45
0.0
1001
ACAD
1000
AcDbSavedByObjectVersion
1070
     0
  0
VISUALSTYLE
  5
35
102
{ACAD_REACTORS
330
2A
102
}
330
2A
100
AcDbVisualStyle
  2
Dim
 70
    11
 71
     2
 72
     2
 73
     0
 90
        0
 40
-0.6
 41
-30.0
 62
     5
 63
     7
421
 16777215
 74
     1
 91
        4
 64
     7
 65
   257
 75
     1
175
     1
 42
1.0
 92
        8
 66
     7
 43
1.0
 76
     1
 77
     6
 78
     2
 67
     7
 79
     5
170
     0
171
     0
290
     0
174
     0
 93
        1
 44
-50.0
173
     0
291
     1
 45
0.0
1001
ACAD
1000
AcDbSavedByObjectVersion
1070
     0
  0
VISUALSTYLE
  5
39
102
{ACAD_REACTORS
330
2A
102
}
330
2A
100
AcDbVisualStyle
  2
Facepattern
 70
    15
 71
     2
 72
     2
 73
     0
 90
        0
 40
-0.6
 41
-30.0
 62
     5
 63
     7
421
 16777215
 74
     1
 91
        4
 64
     7
 65
   257
 75
     1
175
     1
 42
1.0
 92
        8
 66
     7
 43
1.0
 76
     1
 77
     6
 78
     2
 67
     7
 79
     5
170
     0
171
     0
290
     0
174
     0
 93
        1
 44
0.0
173
     0
291
     1
 45
0.0
1001
ACAD
1000
AcDbSavedByObjectVersion
1070
     0
  0
VISUALSTYLE
  5
2B
102
{ACAD_REACTORS
330
2A
102
}
330
2A
100
AcDbVisualStyle
  2
Flat
 70
     0
 71
     2
 72
     1
 73
     1
 90
        2
 40
-0.6
 41
30.0
 62
     5
 63
     7
421
 16777215
 74
     0
 91
        4
 64
     7
 65
   257
 75
     1
175
     1
 42
1.0
 92
        8
 66
     7
 43
1.0
 76
     1
 77
     6
 78
     2
 67
     7
 79
     5
170
     0
171
     0
290
     0
174
     0
 93
       13
 44
0.0
173
     0
291
     1
 45
0.0
1001
ACAD
1000
AcDbSavedByObjectVersion
1070
     0
  0
VISUALSTYLE
  5
2C
102
{ACAD_REACTORS
330
2A
102
}
330
2A
100
AcDbVisualStyle
  2
FlatWithEdges
 70
     1
 71
     2
 72
     1
 73
     1
 90
        2
 40
-0.6
 41
30.0
 62
     5
 63
     7
421
 16777215
 74
     1
 91
        4
 64
     7
 65
   257
 75
     1
175
     1
 42
1.0
 92
        0
 66
   257
 43
1.0
 76
     1
 77
     6
 78
     2
 67
     7
 79
     5
170
     0
171
     0
290
     0
174
     0
 93
       13
 44
0.0
173
     0
291
     1
 45
0.0
1001
ACAD
1000
AcDbSavedByObjectVersion
1070
     0
  0
VISUALSTYLE
  5
2D
102
{ACAD_REACTORS
330
2A
102
}
330
2A
100
AcDbVisualStyle
  2
Gouraud
 70
     2
 71
     2
 72
     2
 73
     1
 90
        2
 40
-0.6
 41
30.0
 62
     5
 63
     7
421
 16777215
 74
     0
 91
        4
 64
     7
 65
   257
 75
     1
175
     1
 42
1.0
 92
        0
 66
     7
 43
1.0
 76
     1
 77
     6
 78
     2
 67
     7
 79
     5
170
     0
171
     0
290
     0
174
     0
 93
       13
 44
0.0
173
     0
291
     1
 45
0.0
1001
ACAD
1000
AcDbSavedByObjectVersion
1070
     0
  0
VISUALSTYLE
  5
2E
102
{ACAD_REACTORS
330
2A
102
}
330
2A
100
AcDbVisualStyle
  2
GouraudWithEdges
 70
     3
 71
     2
 72
     2
 73
     1
 90
        2
 40
-0.6
 41
30.0
 62
     5
 63
     7
421
 16777215
 74
     1
 91
        4
 64
     7
 65
   257
 75
     1
175
     1
 42
1.0
 92
        0
 66
   257
 43
1.0
 76
     1
 77
     6
 78
     2
 67
     7
 79
     5
170
     0
171
     0
290
     0
174
     0
 93
       13
 44
0.0
173
     0
291
     1
 45
0.0
1001
ACAD
1000
AcDbSavedByObjectVersion
1070
     0
  0
VISUALSTYLE
  5
38
102
{ACAD_REACTORS
330
2A
102
}
330
2A
100
AcDbVisualStyle
  2
Linepattern
 70
    14
 71
     2
 72
     2
 73
     0
 90
        0
 40
-0.6
 41
-30.0
 62
     5
 63
     7
421
 16777215
 74
     1
 91
        4
 64
     7
 65
   257
 75
     7
175
     7
 42
1.0
 92
        8
 66
     7
 43
1.0
 76
     1
 77
     6
 78
     2
 67
     7
 79
     5
170
     0
171
     0
290
     0
174
     0
 93
        1
 44
0.0
173
     0
291
     1
 45
0.0
1001
ACAD
1000
AcDbSavedByObjectVersion
1070
     0
  0
VISUALSTYLE
  5
33
102
{ACAD_REACTORS
330
2A
102
}
330
2A
100
AcDbVisualStyle
  2
Realistic
 70
     8
 71
     2
 72
     2
 73
     0
 90
        0
 40
-0.6
 41
-30.0
 62
     5
 63
     7
421
 16777215
 74
     1
 91
        0
 64
     7
 65
   257
 75
     1
175
     1
 42
1.0
 92
        8
 66
     8
424
  7895160
 43
1.0
 76
     1
 77
     6
 78
     2
 67
     7
 79
     5
170
     0
171
     0
290
     0
174
     0
 93
       13
 44
0.0
173
     0
291
     0
 45
0.0
1001
ACAD
1000
AcDbSavedByObjectVersion
1070
     0
  0
VISUALSTYLE
  5
37
102
{ACAD_REACTORS
330
2A
102
}
330
2A
100
AcDbVisualStyle
  2
Thicken
 70
    13
 71
     2
 72
     2
 73
     0
 90
        0
 40
-0.6
 41
-30.0
 62
     5
 63
     7
421
 16777215
 74
     1
 91
        4
 64
     7
 65
   257
 75
     1
175
     1
 42
1.0
 92
       12
 66
     7
 43
1.0
 76
     1
 77
     6
 78
     2
 67
     7
 79
     5
170
     0
171
     0
290
     0
174
     0
 93
        1
 44
0.0
173
     0
291
     1
 45
0.0
1001
ACAD
1000
AcDbSavedByObjectVersion
1070
     0
  0
ENDSEC
  0
EOF
